<?xml version="1.0" encoding="utf-8"?>
<!-- Generator: Adobe Illustrator 16.0.0, SVG Export Plug-In . SVG Version: 6.00 Build 0)  -->
<!DOCTYPE svg PUBLIC "-//W3C//DTD SVG 1.1//EN" "http://www.w3.org/Graphics/SVG/1.1/DTD/svg11.dtd">
<svg version="1.1" id="Layer_1" xmlns="http://www.w3.org/2000/svg" xmlns:xlink="http://www.w3.org/1999/xlink" x="0px" y="0px"
	 width="18px" height="12px" viewBox="0 0 18 12" enable-background="new 0 0 18 12" xml:space="preserve">
<path fill="#010101" d="M15,5H5.4l2.31-2.31C7.907,2.493,8,2.258,8,2c0-0.492-0.406-1-1-1C6.734,1,6.503,1.097,6.31,1.29
	L2.331,5.269C2.167,5.433,2,5.636,2,6s0.14,0.54,0.323,0.724L6.31,10.71C6.503,10.903,6.734,11,7,11c0.594,0,1-0.508,1-1
	c0-0.258-0.093-0.493-0.29-0.689L5.4,7H15c0.552,0,1-0.448,1-1S15.552,5,15,5z"/>
</svg>
