<?xml version="1.0" encoding="utf-8"?>
<!-- Generator: Adobe Illustrator 16.0.0, SVG Export Plug-In . SVG Version: 6.00 Build 0)  -->
<!DOCTYPE svg PUBLIC "-//W3C//DTD SVG 1.1//EN" "http://www.w3.org/Graphics/SVG/1.1/DTD/svg11.dtd">
<svg version="1.1" id="Layer_1" xmlns="http://www.w3.org/2000/svg" xmlns:xlink="http://www.w3.org/1999/xlink" x="0px" y="0px"
	 width="100px" height="100px" viewBox="0 0 100 100" enable-background="new 0 0 100 100" xml:space="preserve">
<path d="M43.945,65.639c-8.835,0-15.998-7.162-15.998-15.998c0-8.836,7.163-15.998,15.998-15.998c6.004,0,11.229,3.312,13.965,8.203
	c0.664-0.113,1.338-0.205,2.033-0.205c6.627,0,11.998,5.373,11.998,12c0,6.625-5.371,11.998-11.998,11.998
	C57.168,65.639,47.143,65.639,43.945,65.639z M59.943,61.639c4.418,0,8-3.582,8-7.998c0-4.417-3.582-8-8-8
	c-1.601,0-3.082,0.481-4.334,1.291c-1.23-5.316-5.973-9.29-11.665-9.29c-6.626,0-11.998,5.372-11.998,11.999
	c0,6.626,5.372,11.998,11.998,11.998C47.562,61.639,56.924,61.639,59.943,61.639z"/>
<path d="M73.531,43.633c-1.066,0.281-2.162-0.354-2.445-1.421s0.354-2.163,1.419-2.445l3.866-1.026
	c1.065-0.285,2.162,0.352,2.445,1.418c0.283,1.065-0.353,2.163-1.419,2.446L73.531,43.633z M63.617,46.335
	c0.001-2.762-1.419-5.448-3.979-6.934c-2.559-1.486-5.598-1.384-7.992-0.013l-3.79-2.199c3.765-3.201,9.272-3.869,13.79-1.248
	c4.516,2.621,6.672,7.735,5.76,12.59L63.617,46.335z M63.653,32.484c-0.956-0.554-1.28-1.779-0.727-2.734l2.008-3.459
	c0.555-0.956,1.777-1.279,2.733-0.725c0.955,0.554,1.28,1.777,0.727,2.732l-2.008,3.459C65.833,32.712,64.607,33.038,63.653,32.484z
	 M49.07,29.439l-1.027-3.866c-0.283-1.067,0.354-2.162,1.42-2.447c1.068-0.283,2.163,0.354,2.446,1.421l1.025,3.866
	c0.285,1.065-0.351,2.162-1.418,2.445S49.356,30.506,49.07,29.439z"/>
</svg>
