<?xml version="1.0" encoding="utf-8"?>
<!-- Generator: Adobe Illustrator 16.0.0, SVG Export Plug-In . SVG Version: 6.00 Build 0)  -->
<!DOCTYPE svg PUBLIC "-//W3C//DTD SVG 1.1//EN" "http://www.w3.org/Graphics/SVG/1.1/DTD/svg11.dtd">
<svg version="1.1" id="Layer_1" xmlns="http://www.w3.org/2000/svg" xmlns:xlink="http://www.w3.org/1999/xlink" x="0px" y="0px"
	 width="57px" height="57px" viewBox="21.5 21.5 57 57" enable-background="new 21.5 21.5 57 57" xml:space="preserve">
<path d="M38.039,72.805c-6.902,0-12.498-5.596-12.498-12.498S31.136,47.81,38.039,47.81c4.691,0,8.772,2.587,10.91,6.409
	c0.52-0.089,1.046-0.16,1.589-0.16c5.177,0,9.373,4.197,9.373,9.373s-4.196,9.373-9.373,9.373
	C48.368,72.805,40.537,72.805,38.039,72.805z M49.821,69.416c3.244,0,5.871-2.627,5.871-5.869c0-3.24-2.627-5.869-5.871-5.869
	c-1.174,0-2.26,0.354-3.179,0.947c-0.903-3.9-4.382-6.816-8.56-6.816c-4.862,0-8.804,3.941-8.804,8.806
	c0,4.86,3.941,8.803,8.804,8.803C40.737,69.416,47.607,69.416,49.821,69.416z"/>
<path d="M69.359,63.795l-3.396-2.107c-0.938-0.582-1.228-1.815-0.646-2.754s1.816-1.227,2.754-0.645l3.398,2.107
	c0.938,0.584,1.228,1.815,0.646,2.756C71.533,64.088,70.301,64.379,69.359,63.795z M69.707,48.341
	c-1.075,0.251-2.15-0.416-2.402-1.492c-0.252-1.074,0.418-2.149,1.49-2.402l3.896-0.911c1.072-0.252,2.148,0.417,2.4,1.491
	c0.252,1.076-0.418,2.151-1.492,2.403L69.707,48.341z M59.219,59.854l-3.722-2.312c1.201-0.64,2.256-1.589,3.024-2.827
	c2.33-3.754,1.179-8.687-2.576-11.016c-3.752-2.331-8.687-1.175-11.015,2.577c-0.771,1.239-1.151,2.607-1.192,3.966l-3.723-2.31
	c0.284-1.298,0.776-2.573,1.518-3.765c3.494-5.631,10.892-7.361,16.521-3.867c5.633,3.496,7.36,10.892,3.866,16.522
	C61.182,58.018,60.258,59.021,59.219,59.854z M60.164,36.903c-0.938-0.583-1.225-1.817-0.645-2.754l2.109-3.397
	c0.582-0.938,1.814-1.228,2.754-0.646c0.938,0.583,1.227,1.817,0.645,2.755l-2.108,3.397C62.336,37.197,61.102,37.485,60.164,36.903
	z M45.68,33.426l-0.911-3.893c-0.252-1.077,0.416-2.152,1.491-2.404c1.073-0.251,2.15,0.417,2.402,1.491l0.911,3.895
	c0.251,1.074-0.417,2.15-1.491,2.402S45.932,34.502,45.68,33.426z M38.135,42.058c-0.582,0.938-1.816,1.227-2.753,0.645
	l-3.398-2.108c-0.938-0.583-1.228-1.817-0.645-2.755s1.815-1.226,2.754-0.644l3.398,2.108
	C38.428,39.886,38.718,41.119,38.135,42.058z"/>
</svg>
