<?xml version="1.0" encoding="UTF-8" standalone="no"?>
<!-- Created with PhotoLine 18.01 (www.pl32.com) -->
<!DOCTYPE svg PUBLIC "-//W3C//DTD SVG 1.1//EN" "http://www.w3.org/Graphics/SVG/1.1/DTD/svg11.dtd">
<svg width="1024" height="1024" version="1.1" xmlns="http://www.w3.org/2000/svg" xmlns:xlink="http://www.w3.org/1999/xlink">
  <g transform="matrix(34.377864 0 0 34.377861 -1210.506835 -1209.763427)">
    <path fill-rule="evenodd" d="M63 50 L62 50 L62 52 C62 53.66 60.65 55 59 55 L55 55 C53.34 55 52 53.66 52 52 L51.01 48.04 C50.66 48.02 50.31 48 49.97 48 C49.64 48 49.31 48.02 48.99 48.05 L48 52 C48 53.66 46.66 55 45 55 L41 55 C39.34 55 38 53.66 38 52 L38 50 L37 50 C36.45 50 36 49.55 36 49 L36 48 C36 47.45 36.45 47 37 47 L38.19 47 C38.6 45.84 39.7 45 41 45 L46 45 C46.94 45 47.78 45.45 48.33 46.13 C48.85 46.05 49.4 46 49.97 46 C50.54 46 51.12 46.05 51.69 46.11 C52.24 45.44 53.06 45 54 45 L59 45 C60.3 45 61.4 45.84 61.81 47 L63 47 C63.55 47 64 47.45 64 48 L64 49 C64 49.55 63.55 50 63 50 Z M44.34 46.66 C44.05 46.37 43.57 46.37 43.28 46.66 L40.1 49.84 C39.8 50.13 39.8 50.61 40.1 50.9 C40.39 51.2 40.87 51.2 41.16 50.9 L44.34 47.72 C44.63 47.43 44.63 46.95 44.34 46.66 Z M58.34 46.66 C58.05 46.37 57.57 46.37 57.28 46.66 L54.1 49.84 C53.8 50.13 53.8 50.61 54.1 50.9 C54.39 51.2 54.86 51.2 55.16 50.9 L58.34 47.72 C58.63 47.43 58.63 46.95 58.34 46.66 Z"/>
  </g>
</svg>
