<?xml version="1.0" encoding="utf-8"?>
<!-- Generator: Adobe Illustrator 16.0.0, SVG Export Plug-In . SVG Version: 6.00 Build 0)  -->
<!DOCTYPE svg PUBLIC "-//W3C//DTD SVG 1.1//EN" "http://www.w3.org/Graphics/SVG/1.1/DTD/svg11.dtd">
<svg version="1.1" id="Layer_1" xmlns="http://www.w3.org/2000/svg" xmlns:xlink="http://www.w3.org/1999/xlink" x="0px" y="0px"
	 width="57px" height="57px" viewBox="21.5 21.5 57 57" enable-background="new 21.5 21.5 57 57" xml:space="preserve">
<path d="M40.945,71.639c-8.835,0-15.998-7.162-15.998-15.998c0-8.835,7.163-15.998,15.998-15.998c6.004,0,11.229,3.312,13.965,8.203
	c0.664-0.113,1.338-0.205,2.033-0.205c6.627,0,11.998,5.373,11.998,12c0,6.625-5.371,11.998-11.998,11.998
	C54.168,71.639,44.143,71.639,40.945,71.639z M56.943,67.639c4.418,0,8-3.582,8-7.998s-3.582-8-8-8
	c-1.602,0-3.082,0.481-4.334,1.291c-1.23-5.315-5.973-9.29-11.666-9.29c-6.626,0-11.998,5.372-11.998,11.999
	c0,6.627,5.372,11.998,11.998,11.998C44.562,67.639,53.924,67.639,56.943,67.639z"/>
<path d="M70.531,49.633c-1.066,0.281-2.162-0.354-2.445-1.421s0.354-2.163,1.419-2.445l3.866-1.026
	c1.064-0.285,2.162,0.352,2.445,1.418c0.283,1.065-0.354,2.163-1.42,2.446L70.531,49.633z M60.617,52.335
	c0.001-2.762-1.419-5.448-3.979-6.934c-2.56-1.486-5.599-1.384-7.992-0.013l-3.791-2.199c3.765-3.201,9.272-3.869,13.791-1.248
	c4.516,2.621,6.672,7.735,5.76,12.59L60.617,52.335z M60.652,38.484c-0.955-0.554-1.279-1.779-0.727-2.734l2.008-3.459
	c0.555-0.956,1.777-1.279,2.733-0.725c0.955,0.554,1.28,1.777,0.728,2.732l-2.009,3.459C62.833,38.712,61.607,39.038,60.652,38.484z
	 M46.07,35.439l-1.027-3.866c-0.283-1.067,0.354-2.162,1.42-2.447c1.068-0.283,2.163,0.354,2.446,1.421l1.024,3.866
	c0.285,1.065-0.351,2.162-1.418,2.445C47.449,37.141,46.356,36.506,46.07,35.439z"/>
</svg>
