<?xml version="1.0" encoding="utf-8"?>
<!-- Generator: Adobe Illustrator 16.0.0, SVG Export Plug-In . SVG Version: 6.00 Build 0)  -->
<!DOCTYPE svg PUBLIC "-//W3C//DTD SVG 1.1//EN" "http://www.w3.org/Graphics/SVG/1.1/DTD/svg11.dtd">
<svg version="1.1" id="Layer_1" xmlns="http://www.w3.org/2000/svg" xmlns:xlink="http://www.w3.org/1999/xlink" x="0px" y="0px"
	 width="57px" height="57px" viewBox="21.5 21.5 57 57" enable-background="new 21.5 21.5 57 57" xml:space="preserve">
<path d="M75.25,51.557h-4c-1.104,0-2-0.895-2-1.999c0-1.104,0.896-1.998,2-1.998h4c1.104,0,2,0.895,2,1.998
	C77.25,50.662,76.354,51.557,75.25,51.557z M67.393,38.246c-0.781,0.781-2.047,0.781-2.828,0c-0.781-0.78-0.781-2.047,0-2.827
	l2.828-2.828c0.781-0.781,2.047-0.781,2.828,0c0.781,0.78,0.781,2.047,0,2.828L67.393,38.246z M64.445,53.852L64.445,53.852
	c1.75,2.086,2.807,4.771,2.807,7.705c0,6.625-5.373,11.998-12,11.998c-2.773,0-12.8,0-15.998,0c-8.835,0-15.998-7.162-15.998-15.998
	c0-8.835,7.163-15.997,15.998-15.997c1.572,0,3.09,0.232,4.523,0.654c2.195-2.827,5.618-4.654,9.475-4.654
	c6.627,0,12,5.373,12,11.998C65.25,51.072,64.957,52.518,64.445,53.852z M27.255,57.557c0,6.627,5.371,11.998,11.998,11.998
	c3.616,0,12.979,0,15.999,0c4.418,0,7.998-3.582,7.998-7.998c0-4.418-3.58-8-7.998-8c-1.6,0-3.084,0.482-4.334,1.291
	c-1.23-5.315-5.973-9.288-11.665-9.288C32.626,45.56,27.255,50.93,27.255,57.557z M53.252,41.56c-2.213,0-4.215,0.898-5.662,2.349
	c2.34,1.436,4.285,3.453,5.629,5.854c0.664-0.113,1.338-0.205,2.033-0.205c2.125,0,4.119,0.559,5.85,1.526l0,0
	c0.096-0.494,0.15-1.003,0.15-1.526C61.252,45.142,57.67,41.56,53.252,41.56z M53.252,33.56c-1.104,0-2-0.895-2-1.999v-3.999
	c0-1.105,0.896-2,2-2c1.105,0,2,0.895,2,2v3.999C55.252,32.666,54.357,33.56,53.252,33.56z M39.112,38.246l-2.827-2.827
	c-0.781-0.781-0.781-2.048,0-2.828c0.78-0.781,2.047-0.781,2.827,0l2.828,2.828c0.781,0.78,0.781,2.047,0,2.827
	C41.16,39.026,39.893,39.026,39.112,38.246z"/>
</svg>
